<svg width="20" height="20" viewBox="0 0 20 20" fill="none" xmlns="http://www.w3.org/2000/svg">
<path d="M7.24036 9.9764C7.24036 10.1864 7.32336 10.367 7.4845 10.5282L11.2345 14.1854C11.3614 14.3123 11.5177 14.3807 11.7032 14.3807C12.0841 14.3807 12.3868 14.078 12.3868 13.702C12.3868 13.5164 12.3136 13.3407 12.1769 13.2039L8.85657 9.98128L12.1769 6.75374C12.3087 6.61702 12.3868 6.44612 12.3868 6.25569C12.3868 5.87971 12.0841 5.57698 11.7032 5.57698C11.5177 5.57698 11.3614 5.64534 11.2296 5.77229L7.4845 9.42952C7.31848 9.60042 7.24036 9.77132 7.24036 9.9764Z" fill="#3C3C43" fill-opacity="0.6"/>
</svg>
