<svg width="20" height="20" viewBox="0 0 20 20" fill="none" xmlns="http://www.w3.org/2000/svg">
<path d="M12.3868 9.98128C12.3868 9.77132 12.3038 9.59065 12.1427 9.42952L8.3927 5.77229C8.26575 5.64534 8.1095 5.57698 7.92395 5.57698C7.54309 5.57698 7.24036 5.87971 7.24036 6.25569C7.24036 6.44124 7.3136 6.61702 7.45032 6.75374L10.7706 9.9764L7.45032 13.2039C7.31848 13.3407 7.24036 13.5116 7.24036 13.702C7.24036 14.078 7.54309 14.3807 7.92395 14.3807C8.1095 14.3807 8.26575 14.3123 8.39758 14.1854L12.1427 10.5282C12.3087 10.3573 12.3868 10.1864 12.3868 9.98128Z" fill="#3C3C43" fill-opacity="0.6"/>
</svg>
