<svg width="211" height="30" viewBox="0 0 211 30" fill="none" xmlns="http://www.w3.org/2000/svg">
<g clip-path="url(#clip0_2_365)">
<path d="M46.5126 23.3193C44.3698 23.3193 42.7311 22.5 41.5966 20.7983C40.4622 19.0966 39.8319 17.0798 39.8319 14.6849C39.8319 12.2269 40.3992 10.2101 41.5966 8.63444C42.7941 6.99578 44.4328 6.17645 46.6387 6.17645C48.8445 6.17645 50.4832 7.05881 51.6177 8.76049C52.7521 10.5252 53.3193 12.479 53.3193 14.6849C53.3193 17.0798 52.7521 19.1596 51.5546 20.7983C50.4202 22.5 48.7185 23.3193 46.5126 23.3193ZM46.6387 9.39074C44.6849 9.39074 43.7395 11.1554 43.7395 14.7479C43.7395 18.3403 44.6849 20.168 46.6387 20.168C48.5294 20.168 49.4748 18.4033 49.4748 14.8109C49.4118 11.1554 48.4664 9.39074 46.6387 9.39074Z" fill="#4F4F4F"/>
<path d="M59.4958 19.7899H65.7983V23.0672H55.7143V6.42853H59.4958V19.7899Z" fill="#4F4F4F"/>
<path d="M71.3445 6.42853V23.0672H67.626V6.42853H71.3445Z" fill="#4F4F4F"/>
<path d="M86.2815 6.42853L81.4916 23.0672H77.521L72.7941 6.42853H76.7647L79.916 18.3403L83.1933 6.42853H86.2815Z" fill="#4F4F4F"/>
<path d="M99.0126 9.64281H91.5126V13.0462H97.437V16.1974H91.5126V19.8529H99.0126V23.1302H87.7311V6.42853H99.0126V9.64281Z" fill="#4F4F4F"/>
<path d="M104.937 6.42853V23.0672H101.219V6.42853H104.937Z" fill="#4F4F4F"/>
<path d="M111.807 16.5126V23.1302H108.088V6.42853H115.021C116.282 6.42853 117.353 6.55458 118.109 6.8697C118.866 7.18483 119.559 7.75206 120.063 8.57139C120.567 9.39071 120.819 10.3361 120.819 11.3445C120.819 13.3613 119.874 14.7479 118.046 15.6302L120.945 23.0042H116.849L114.391 16.3865H111.807V16.5126ZM111.807 9.39071V13.6134H114.076C114.832 13.6134 115.336 13.5504 115.714 13.4243C116.092 13.2983 116.345 13.0462 116.597 12.668C116.849 12.2899 116.975 11.8487 116.975 11.3445C116.975 10.9033 116.849 10.4621 116.597 10.084C116.345 9.70584 116.029 9.51676 115.714 9.39071C115.399 9.32769 114.832 9.26466 113.95 9.26466H111.807V9.39071Z" fill="#4F4F4F"/>
<path d="M131.471 6.42853L136.387 23.0672H132.416L131.471 19.6638H126.366L125.357 23.0672H122.08L127.122 6.42853H131.471ZM127.185 16.5756H130.525L128.887 10.7142L127.185 16.5756Z" fill="#4F4F4F"/>
<path d="M154.034 6.42853V9.70584H150.126V23.0672H146.345V9.76886H142.437V6.49155H154.034V6.42853Z" fill="#4F4F4F"/>
<path d="M159.328 16.5126V23.1302H155.609V6.42853H162.542C163.803 6.42853 164.874 6.55458 165.63 6.8697C166.387 7.18483 167.08 7.75206 167.584 8.57139C168.088 9.39071 168.34 10.3361 168.34 11.3445C168.34 13.3613 167.395 14.7479 165.567 15.6302L168.466 23.0042H164.37L161.975 16.5126H159.328ZM159.328 9.39071V13.6134H161.597C162.353 13.6134 162.857 13.5504 163.235 13.4243C163.613 13.2983 163.866 13.0462 164.118 12.668C164.37 12.2899 164.496 11.8487 164.496 11.3445C164.496 10.9033 164.37 10.4621 164.118 10.084C163.866 9.70584 163.55 9.51676 163.235 9.39071C162.92 9.32769 162.353 9.26466 161.471 9.26466H159.328V9.39071Z" fill="#4F4F4F"/>
<path d="M183.403 6.42853V16.7647C183.403 18.4663 183.214 19.6638 182.836 20.4831C182.458 21.3025 181.828 21.9958 180.819 22.5C179.811 23.0042 178.676 23.3193 177.101 23.3193C175.525 23.3193 174.391 23.0672 173.445 22.626C172.563 22.1848 171.87 21.4916 171.429 20.6092C170.987 19.7268 170.735 18.4663 170.735 16.8277V6.42853H174.769V16.7647C174.769 17.647 174.832 18.3403 174.958 18.7184C175.084 19.1596 175.399 19.4747 175.84 19.7268C176.282 19.9789 176.786 20.105 177.416 20.105C178.109 20.105 178.676 19.9789 179.118 19.7268C179.559 19.4747 179.874 19.1596 180 18.7815C180.126 18.4033 180.189 17.71 180.189 16.7647V6.42853H183.403Z" fill="#4F4F4F"/>
<path d="M197.269 10.084L194.118 11.2185C193.676 9.89494 192.794 9.26469 191.408 9.26469C189.958 9.26469 189.202 9.76889 189.202 10.7773C189.202 11.1554 189.328 11.5336 189.643 11.7857C189.895 12.0378 190.525 12.2899 191.471 12.479C193.109 12.7941 194.244 13.1723 195 13.4874C195.756 13.8655 196.387 14.3697 196.891 15.1891C197.395 15.9454 197.647 16.8277 197.647 17.7731C197.647 19.2857 197.08 20.5462 196.008 21.6807C194.937 22.7521 193.298 23.3193 191.092 23.3193C189.454 23.3193 188.067 22.9412 186.933 22.1849C185.798 21.4286 185.042 20.2311 184.664 18.7185L188.067 17.8991C188.445 19.4748 189.517 20.2311 191.282 20.2311C192.101 20.2311 192.731 20.042 193.172 19.7269C193.613 19.4117 193.803 18.9706 193.803 18.4664C193.803 17.9622 193.613 17.584 193.235 17.3319C192.857 17.0798 192.101 16.8277 191.029 16.5756C189.013 16.1344 187.563 15.5672 186.744 14.7479C185.861 13.9916 185.483 12.8571 185.483 11.4075C185.483 9.95797 185.987 8.69746 186.996 7.68906C188.004 6.68065 189.391 6.17645 191.155 6.17645C194.433 6.17645 196.387 7.49998 197.269 10.084Z" fill="#4F4F4F"/>
<path d="M210.252 6.42859V9.7059H206.345V23.0672H202.563V9.76893H198.655V6.49161H210.252V6.42859Z" fill="#4F4F4F"/>
<path fill-rule="evenodd" clip-rule="evenodd" d="M20.6723 30H4.53783C2.14287 30 0.189087 28.0462 0.189087 25.6513V17.584C2.71009 19.6639 5.86135 20.9244 9.39077 20.9244C9.51682 20.9244 9.70589 20.9244 9.83194 20.9244H20.6723V30ZM30.4412 20.9874V25.6513C30.4412 28.0462 28.4874 30 26.0924 30H25.1471V20.9874H30.4412ZM22.7521 0H26.0294C28.4244 0 30.3782 1.95378 30.3782 4.34874V16.3235H19.8529C22.374 13.6134 23.9496 9.95798 23.9496 5.86134C23.9496 3.78151 23.5084 1.82773 22.7521 0ZM4.53783 0H16.6387C17.9622 1.63866 18.7185 3.71849 18.7185 5.9874C18.7185 11.2815 14.4958 15.5672 9.32774 15.5672C4.85295 15.5672 1.13446 12.416 0.189087 8.13025V4.34874C0.189087 3.97059 0.252112 3.59244 0.315137 3.27731C0.378163 3.15126 0.441188 3.02521 0.441188 2.83613C1.07144 1.19748 2.71009 0 4.53783 0Z" fill="#D40000"/>
</g>
<defs>
<clipPath id="clip0_2_365">
<rect width="210.441" height="30" fill="white"/>
</clipPath>
</defs>
</svg>
